<svg width="55" height="57" viewBox="0 0 55 57" fill="none" xmlns="http://www.w3.org/2000/svg">
<path fill-rule="evenodd" clip-rule="evenodd" d="M53.65 28.1843C54.424 28.9724 54.4126 30.2386 53.6246 31.0126L28.6246 55.5682C27.8466 56.3324 26.5997 56.3324 25.8217 55.5682L0.82167 31.0126C0.0336494 30.2386 0.0222929 28.9723 0.796306 28.1843C1.57032 27.3963 2.8366 27.3849 3.62462 28.159L25.2231 49.3735V2.14136C25.2231 1.03679 26.1186 0.141357 27.2231 0.141357C28.3277 0.141357 29.2231 1.03679 29.2231 2.14136V49.3735L50.8217 28.159C51.6097 27.3849 52.876 27.3963 53.65 28.1843Z" fill="white"/>
<path fill-rule="evenodd" clip-rule="evenodd" d="M53.65 28.1843C54.424 28.9724 54.4126 30.2386 53.6246 31.0126L28.6246 55.5682C27.8466 56.3324 26.5997 56.3324 25.8217 55.5682L0.82167 31.0126C0.0336494 30.2386 0.0222929 28.9723 0.796306 28.1843C1.57032 27.3963 2.8366 27.3849 3.62462 28.159L25.2231 49.3735V2.14136C25.2231 1.03679 26.1186 0.141357 27.2231 0.141357C28.3277 0.141357 29.2231 1.03679 29.2231 2.14136V49.3735L50.8217 28.159C51.6097 27.3849 52.876 27.3963 53.65 28.1843Z" fill="url(#paint0_linear_86_471)"/>
<defs>
<linearGradient id="paint0_linear_86_471" x1="-31.7585" y1="82.1271" x2="92.5451" y2="-34.0814" gradientUnits="userSpaceOnUse">
<stop stop-color="#F89212"/>
<stop offset="0.338542" stop-color="#7EC4FD"/>
<stop offset="0.619792" stop-color="#093DAB"/>
<stop offset="1" stop-color="#6E61E6"/>
</linearGradient>
</defs>
</svg>
